<svg width="166" height="51" viewBox="0 0 166 51" fill="none" xmlns="http://www.w3.org/2000/svg">
<circle cx="25" cy="25" r="25" fill="#B5FFD6"/>
<path d="M25.8 21V18.6C25.8 17.56 26.04 17 27.72 17H29.8V13H26.6C22.6 13 21 15.64 21 18.6V21H17.8V25H21V37H25.8V25H29.32L29.8 21H25.8Z" fill="#1DDA72"/>
<circle cx="83" cy="25" r="25" fill="#B5FFD6"/>
<g clip-path="url(#clip0_32_212)">
<path d="M77.4594 34.875H72.9242V20.2703H77.4594V34.875ZM75.1891 18.2781C73.7391 18.2781 72.5625 17.0766 72.5625 15.6266C72.5625 14.93 72.8392 14.2619 73.3318 13.7693C73.8244 13.2767 74.4925 13 75.1891 13C75.8857 13 76.5537 13.2767 77.0463 13.7693C77.5389 14.2619 77.8156 14.93 77.8156 15.6266C77.8156 17.0766 76.6391 18.2781 75.1891 18.2781ZM94.4328 34.875H89.9078V27.7656C89.9078 26.0711 89.8734 23.8984 87.55 23.8984C85.1922 23.8984 84.8305 25.7391 84.8305 27.6437V34.875H80.3V20.2703H84.6492V22.2625H84.7125C85.318 21.1148 86.7969 19.9039 89.0031 19.9039C93.593 19.9039 94.4367 22.9266 94.4367 26.8523V34.875H94.4328Z" fill="#1DDA72"/>
</g>
<circle cx="141" cy="26" r="25" fill="#B5FFD6"/>
<path d="M154.7 21.1654V32.925C154.7 34.019 154.265 35.0682 153.492 35.8418C152.718 36.6154 151.669 37.05 150.575 37.05H132.425C131.331 37.05 130.282 36.6154 129.508 35.8418C128.735 35.0682 128.3 34.019 128.3 32.925V21.1654L141.081 28.6861C141.208 28.761 141.353 28.8005 141.5 28.8005C141.647 28.8005 141.792 28.761 141.919 28.6861L154.7 21.1654ZM150.575 15.6C151.59 15.5998 152.569 15.9739 153.326 16.6506C154.082 17.3273 154.563 18.2592 154.675 19.2679L141.5 27.018L128.325 19.2679C128.437 18.2592 128.918 17.3273 129.674 16.6506C130.431 15.9739 131.41 15.5998 132.425 15.6H150.575Z" fill="#1DDA72"/>
<defs>
<clipPath id="clip0_32_212">
<rect width="25" height="25" fill="white" transform="translate(71 13)"/>
</clipPath>
</defs>
</svg>
